<svg version="1.1" preserveAspectRatio="none" xmlns="http://www.w3.org/2000/svg" width="500" height="500" viewBox="0 0 500 500"><rect width="100%" height="100%" fill="#E1E1E1" fill-opacity="1"/><svg viewBox="2562.9475 1538.5886 476.6373 120" width="333" height="83.83733291540548" x="83.5px" y="208.0813px" xmlns="http://www.w3.org/2000/svg" xmlns:xlink="http://www.w3.org/1999/xlink" preserveAspectRatio="none"><defs></defs><style>.background {fill:#E1E1E1;fill-opacity:1;}.companyName {fill:#03D069;fill-opacity:1;}.icon3 {fill:#B6B5B5;fill-opacity:1;}.icon3-str {stroke:#B6B5B5;stroke-opacity:1;}.shape {fill:#F1F1F1;fill-opacity:1;}.shapeStroke-str {stroke:#03D069;stroke-opacity:1;}</style><g opacity="1" transform="rotate(0 2562.9475 1538.5886)">
<svg width="120.0004" height="120" x="2562.9475" y="1538.5886" version="1.1" preserveAspectRatio="none" viewBox="0 0 120.0004 120">
  <defs><rect x="0" y="0" width="120.0004" height="120" rx="10px" ry="10px" id="id-5kldYRpCP1689902842198"></rect></defs><use class="companyName shapeStroke-str" style="stroke-width:0;" xlink:href="#id-5kldYRpCP1689902842198"></use>
</svg>
</g><g opacity="1" transform="rotate(0 2577.9475 1557.7373)">
<svg width="90.0004" height="81.7026" x="2577.9475" y="1557.7373" version="1.1" preserveAspectRatio="none" viewBox="29.5 36 141 128">
  <g transform="matrix(1 0 0 1 0 0)"><g><path d="M166.5 36h-39.9c-11.385 0-21.33 6.268-26.6 15.536C94.73 42.268 84.785 36 73.4 36H33.5a4 4 0 0 0-4 4v100a4 4 0 0 0 4 4h46.55c8.795 0 15.95 7.178 15.95 16a4 4 0 0 0 8 0c0-8.822 7.155-16 15.95-16h46.55a4 4 0 0 0 4-4V40a4 4 0 0 0-4-4zM96 142.111C91.762 138.312 86.17 136 80.05 136H37.5V44h35.9C85.862 44 96 54.168 96 66.667v75.444zM162.5 136h-42.55c-6.12 0-11.712 2.312-15.95 6.111V66.667C104 54.168 114.138 44 126.6 44h35.9v92z" data-color="1" class="background"></path></g></g>
</svg>
</g><g opacity="1" transform="rotate(0 2706.9479 1538.5886)">
<svg width="332.6369" height="120" x="2706.9479" y="1538.5886" version="1.1" preserveAspectRatio="none" viewBox="2.8 -28.56 80.72 29.12">
  <g transform="matrix(1 0 0 1 0 0)" class="companyName"><path id="id-D6z1nYkh3" d="M24.32-14.60Q26.72-13.76 28.08-11.98Q29.44-10.20 29.44-7.68L29.44-7.68Q29.44-4 26.48-2Q23.52 0 17.92 0L17.92 0L2.80 0L2.80-28L17.12-28Q22.48-28 25.28-26.02Q28.08-24.04 28.08-20.68L28.08-20.68Q28.08-18.68 27.10-17.10Q26.12-15.52 24.32-14.60L24.32-14.60ZM16.08-22.28L10.64-22.28L10.64-16.88L16.08-16.88Q20.08-16.88 20.08-19.60L20.08-19.60Q20.08-22.28 16.08-22.28L16.08-22.28ZM17.28-5.72Q21.44-5.72 21.44-8.56L21.44-8.56Q21.44-11.40 17.28-11.40L17.28-11.40L10.64-11.40L10.64-5.72L17.28-5.72Z M42.96-6.28L53.76-6.28L53.76 0L31.96 0L31.96-4.96L42.44-14.76Q43.96-16.20 44.48-17.22Q45-18.24 45-19.28L45-19.28Q45-20.64 44.08-21.40Q43.16-22.16 41.40-22.16L41.40-22.16Q39.84-22.16 38.54-21.46Q37.24-20.76 36.40-19.44L36.40-19.44L30.52-22.72Q32.16-25.44 35.12-27Q38.08-28.56 42.12-28.56L42.12-28.56Q45.32-28.56 47.78-27.52Q50.24-26.48 51.62-24.54Q53-22.60 53-20.04L53-20.04Q53-17.76 52.02-15.74Q51.04-13.72 48.24-11.16L48.24-11.16L42.96-6.28Z M71.48 0.56Q67.08 0.56 63.58-1.30Q60.08-3.16 58.08-6.48Q56.08-9.80 56.08-14L56.08-14Q56.08-18.20 58.08-21.52Q60.08-24.84 63.58-26.70Q67.08-28.56 71.48-28.56L71.48-28.56Q75.32-28.56 78.40-27.20Q81.48-25.84 83.52-23.28L83.52-23.28L78.48-18.72Q75.76-22 71.88-22L71.88-22Q69.60-22 67.82-21Q66.04-20 65.06-18.18Q64.08-16.36 64.08-14L64.08-14Q64.08-11.64 65.06-9.82Q66.04-8 67.82-7Q69.60-6 71.88-6L71.88-6Q75.76-6 78.48-9.28L78.48-9.28L83.52-4.72Q81.48-2.16 78.40-0.80Q75.32 0.56 71.48 0.56L71.48 0.56Z"/></g>
</svg>
</g></svg></svg>